<?xml version="1.0" standalone="no"?>
<!DOCTYPE svg PUBLIC "-//W3C//DTD SVG 20010904//EN"
 "http://www.w3.org/TR/2001/REC-SVG-20010904/DTD/svg10.dtd">
<svg version="1.0" xmlns="http://www.w3.org/2000/svg"
 width="1024.000000pt" height="1024.000000pt" viewBox="0 0 1024.000000 1024.000000"
 preserveAspectRatio="xMidYMid meet">

<g transform="translate(0.000000,1024.000000) scale(0.100000,-0.100000)"
fill="#000000" stroke="none">
<path d="M3800 6714 c0 -5 16 -126 35 -268 19 -142 35 -261 35 -263 0 -3 39
30 86 74 l87 78 28 -35 c107 -131 325 -415 320 -417 -3 -2 -143 -23 -311 -48
-168 -24 -363 -54 -435 -65 -156 -24 -159 -24 -152 -6 3 8 9 30 12 49 l7 34
-219 -67 c-120 -36 -233 -71 -251 -76 -19 -5 -34 -13 -34 -17 0 -15 333 -398
341 -392 5 2 19 45 31 95 20 80 25 90 42 85 10 -4 89 -36 176 -72 86 -35 192
-78 234 -95 l77 -31 35 23 c20 12 36 25 36 30 0 27 -61 59 -285 150 -246 99
-250 101 -247 128 2 15 4 27 5 28 6 3 922 132 924 130 1 -1 -16 -53 -37 -115
-22 -61 -40 -119 -40 -127 0 -25 27 -3 72 62 24 33 60 81 81 106 20 25 37 54
37 65 0 21 18 33 47 33 9 0 40 18 70 41 48 36 95 62 173 97 33 14 6 15 -57 2
-57 -12 -277 -40 -281 -35 -2 1 4 19 12 38 l15 36 -122 153 c-212 266 -220
277 -207 293 7 8 46 40 88 72 101 75 97 72 81 77 -8 2 -119 37 -248 76 -128
39 -239 74 -247 77 -8 3 -14 1 -14 -3z"/>
<path d="M5741 5754 c8 -10 34 -41 56 -67 23 -27 59 -75 80 -108 38 -59 71
-80 57 -36 -13 44 -73 209 -77 213 -2 2 -33 7 -68 10 -62 7 -64 6 -48 -12z"/>
<path d="M5983 5354 c4 -16 14 -68 22 -117 12 -65 26 -105 56 -157 l41 -70
-56 -62 c-41 -47 -61 -80 -81 -137 -40 -115 -111 -231 -194 -318 -12 -13 -21
-35 -21 -52 0 -28 -4 -31 -40 -37 -22 -4 -64 -23 -93 -44 -28 -21 -80 -52
-114 -69 -60 -30 -83 -48 -45 -37 9 3 93 17 186 31 93 13 171 26 173 28 2 2
35 94 74 203 l70 199 92 93 c50 50 97 92 103 92 6 0 39 -51 74 -112 81 -145
101 -178 106 -178 10 0 74 46 74 53 0 12 -43 93 -139 264 -171 303 -242 418
-268 437 l-26 20 6 -30z"/>
<path d="M4572 5103 l3 -228 178 -3 177 -2 0 39 0 40 -127 3 -128 3 0 55 0 55
109 3 c106 3 108 3 102 25 -3 12 -6 30 -6 40 0 15 -12 17 -105 17 l-105 0 0
50 0 50 125 0 125 0 0 24 c0 56 2 56 -181 56 l-169 0 2 -227z"/>
<path d="M4012 5224 c-23 -14 -40 -28 -38 -32 185 -298 197 -315 243 -348 26
-18 48 -32 50 -30 2 2 -6 42 -17 90 -18 75 -32 103 -105 216 -47 72 -86 130
-88 130 -1 0 -21 -12 -45 -26z"/>
<path d="M3305 4861 c-22 -26 -100 -116 -172 -201 -73 -85 -129 -157 -125
-161 4 -3 88 -30 187 -59 99 -29 211 -63 249 -76 l68 -24 -6 23 c-15 51 -18
77 -9 77 5 0 294 -40 642 -90 348 -49 640 -90 650 -90 9 0 -19 18 -62 39 -42
21 -93 51 -112 66 -42 32 -73 41 -174 54 -225 30 -986 133 -988 135 -2 1 -5
16 -9 32 l-6 29 219 89 c120 49 219 89 220 90 4 3 -22 84 -29 91 -3 4 -101
-32 -217 -79 -116 -47 -215 -86 -220 -86 -5 0 -19 41 -31 90 -12 50 -25 92
-29 94 -3 2 -24 -18 -46 -43z"/>
<path d="M4300 4663 c0 -12 59 -187 68 -200 11 -18 122 -30 122 -13 0 6 -20
35 -43 63 -24 29 -58 73 -75 98 -32 47 -72 76 -72 52z"/>
</g>
</svg>
